# xmcd
#
# Track frame offsets:
#	150
#	14009
#	25972
#	39055
#	61810
#	75620
#	97659
#	111362
#	128436
#	141479
#	158739
#	175864
#	195916
#	206015
#	221895
#
# Disc length: 3220 seconds
#
# Revision: 1
# Processed by: cddbd v1.5.2PL0 Copyright (c) Steve Scherf et al.
# Submitted via: audiograbber 1.83.01
#
DISCID=c20c920f
DTITLE=Mauro Ferrarese - Flesh and Wood
DYEAR=2007
DGENRE=Blues
TTITLE0=It's Time
TTITLE1=Rags in my Bag
TTITLE2=Catman
TTITLE3=Engelbert Blues
TTITLE4=Everyday's Blues
TTITLE5=Gas Station Robbery
TTITLE6=Traverlin' Shoes
TTITLE7=easy Rider's Story
TTITLE8=gone too soon
TTITLE9=but remember you
TTITLE10=i wonder
TTITLE11=Rev's Boogie
TTITLE12=at the Window
TTITLE13=passin' the Border
TTITLE14=just wanna
EXTD=
EXTT0=
EXTT1=
EXTT2=
EXTT3=
EXTT4=
EXTT5=
EXTT6=
EXTT7=
EXTT8=
EXTT9=
EXTT10=
EXTT11=
EXTT12=
EXTT13=
EXTT14=
PLAYORDER=
